<svg width="522" height="121" viewBox="0 0 522 121" fill="none" xmlns="http://www.w3.org/2000/svg">
<path d="M513.859 29.4814V19.6548H506.3V9.82822H498.74V0.00115156H491.181V9.82822H483.623V19.6548H476.064V29.4814H468.503V39.308H476.064V49.1345H483.623V58.9616H491.181V68.7881H498.74V58.9616H506.3V49.1345H513.859V39.308H521.417V29.4814H513.859" fill="white"/>
<path d="M102.608 108.115C91.6906 108.115 82.8114 99.2335 82.8114 88.3185C82.8114 77.4002 91.6906 68.5206 102.608 68.5206C113.524 68.5206 122.406 77.4002 122.406 88.3185C122.406 99.2335 113.524 108.115 102.608 108.115ZM102.608 56.4882C85.0578 56.4882 70.7792 70.7663 70.7792 88.3185C70.7792 105.866 85.0578 120.145 102.608 120.145C120.159 120.145 134.437 105.866 134.437 88.3185C134.437 70.7663 120.159 56.4882 102.608 56.4882" fill="white"/>
<path d="M205.739 98.6481L204.588 98.4981L203.933 99.4564C200.236 104.878 194.119 108.115 187.571 108.115C176.655 108.115 167.773 99.235 167.773 88.3167C167.773 77.4017 176.655 68.5189 187.571 68.5189C194.119 68.5189 200.236 71.7558 203.933 77.1777L204.588 78.1361L205.739 77.9866L214.607 76.8339L217.241 76.4918L216.055 74.1153C210.623 63.2429 199.709 56.4886 187.571 56.4886C170.021 56.4886 155.741 70.7673 155.741 88.3167C155.741 105.868 170.021 120.146 187.571 120.146C199.709 120.146 210.623 113.391 216.055 102.519L217.241 100.144L214.607 99.8001L205.739 98.6481Z" fill="white"/>
<path d="M460.401 98.6481L459.251 98.4981L458.595 99.4564C454.897 104.878 448.78 108.115 442.233 108.115C431.316 108.115 422.435 99.235 422.435 88.3167C422.435 77.4017 431.316 68.5189 442.233 68.5189C448.78 68.5189 454.897 71.7558 458.595 77.1777L459.251 78.1361L460.401 77.9866L469.268 76.8339L471.904 76.4918L470.716 74.1153C465.284 63.2429 454.371 56.4886 442.233 56.4886C424.683 56.4886 410.404 70.7673 410.404 88.3167C410.404 105.868 424.683 120.146 442.233 120.146C454.371 120.146 465.284 113.391 470.716 102.519L471.904 100.144L469.268 99.8001L460.401 98.6481" fill="white"/>
<path d="M356.115 108.115C345.196 108.115 336.316 99.2335 336.316 88.3185C336.316 77.4002 345.196 68.5206 356.115 68.5206C367.029 68.5206 375.912 77.4002 375.912 88.3185C375.912 99.2335 367.029 108.115 356.115 108.115V108.115ZM356.115 56.4882C338.564 56.4882 324.285 70.7663 324.285 88.3185C324.285 105.866 338.564 120.145 356.115 120.145C373.665 120.145 387.944 105.866 387.944 88.3185C387.944 70.7663 373.665 56.4882 356.115 56.4882Z" fill="white"/>
<path d="M299.085 58.6723H289.067L288.5 59.3791L270.56 81.714L252.617 59.3791L252.051 58.6723H251.143H242.031H240.141V60.5613V116.032V117.923H242.031H250.352H252.243V116.032V76.8323L269.085 97.8025L270.56 99.6359L272.032 97.8025L288.876 76.8323V116.032V117.923H290.767H299.085H300.975V116.032V60.5613V58.6723H299.085Z" fill="white"/>
<path d="M32.5563 88.4422L52.4948 61.9693L54.7604 58.9619H40.7161L40.1479 59.7141L22.4797 83.1734H11.7224V60.8417V58.9619H9.83177H1.88907H0V60.8417V116.042V117.922H1.88907H9.83177H11.7224V116.042V93.7099H22.4797L40.1479 117.17L40.7161 117.922H41.6615H50.9828H54.7604L52.4948 114.915L32.5563 88.4422Z" fill="white"/>
</svg>
