<svg width="99" height="99" viewBox="0 0 99 99" fill="none" xmlns="http://www.w3.org/2000/svg">
<path d="M49.1348 98.7207C75.9415 98.7207 98.1091 76.5527 98.1091 49.7461C98.1091 22.8906 75.9415 0.771484 49.086 0.771484C22.2794 0.771484 0.160278 22.8906 0.160278 49.7461C0.160278 76.5527 22.3282 98.7207 49.1348 98.7207ZM49.1348 92.373C25.5021 92.373 6.50795 73.3301 6.50795 49.7461C6.50795 26.1133 25.502 7.07028 49.086 7.07028C72.7188 7.07028 91.7621 26.1133 91.8111 49.7461C91.8111 73.3301 72.7677 92.373 49.1348 92.373ZM49.1348 25.2344C47.4747 25.2344 46.3028 26.4062 46.3028 28.1152V56.4355L46.547 65.4199L41.1759 59.4141L34.1446 52.3828C33.6075 51.8457 32.9727 51.5039 32.1427 51.5039C30.5802 51.5039 29.4083 52.6758 29.4083 54.2383C29.4083 55.0195 29.6524 55.6543 30.1407 56.1914L46.9864 72.9883C47.7188 73.7207 48.3536 74.0137 49.1348 74.0137C49.9649 74.0137 50.6485 73.6719 51.3321 72.9883L68.1778 56.1914C68.6661 55.6543 68.9592 55.0195 68.9592 54.2383C68.9592 52.6758 67.7384 51.5039 66.1759 51.5039C65.3458 51.5039 64.7111 51.7969 64.174 52.3828L57.1427 59.4141L51.7227 65.5176L52.0157 56.4355V28.1152C52.0157 26.4062 50.8438 25.2344 49.1348 25.2344Z" fill="rgb(244, 20, 52)"/>
</svg>
