<svg width="316" height="106" viewBox="0 0 316 106" fill="none" xmlns="http://www.w3.org/2000/svg">
<path d="M98.4401 69.6745C98.8627 66.7358 99.1294 63.7825 99.2401 60.8252C94.4867 60.7692 89.7334 60.7145 84.9801 60.6598C84.8801 63.3518 84.6374 66.0398 84.2534 68.7132C88.9827 69.0345 93.7121 69.3545 98.4401 69.6745ZM99.0947 51.8932C98.8867 48.8985 98.5174 45.9118 97.9881 42.9492C93.2721 43.4292 88.5561 43.9092 83.8414 44.3892C84.3227 47.0865 84.6587 49.8038 84.8494 52.5305C89.5974 52.3172 94.3467 52.1052 99.0947 51.8932V51.8932ZM77.0267 76.0318C80.2787 63.3025 80.0521 49.9332 76.3721 37.3225L98.7374 33.7558C100.092 35.0985 101.413 36.4758 102.699 37.8865C103.759 42.4198 104.449 47.0198 104.771 51.6398C103.939 53.2212 103.063 54.7785 102.148 56.3105C103.112 57.8105 104.037 59.3385 104.92 60.8905C104.748 65.5185 104.207 70.1385 103.295 74.7038C102.064 76.1145 100.799 77.4932 99.5001 78.8398C92.0094 77.9025 84.5187 76.9678 77.0267 76.0318Z" fill="white"/>
<path d="M106.292 79.6875C110.24 64.2288 109.966 47.9942 105.496 32.6782C107.364 32.3808 109.231 32.0822 111.098 31.7848C112.954 38.1422 114.11 44.6515 114.566 51.2022L128.811 50.5648C128.319 43.4795 127.068 36.4368 125.06 29.5595L130.623 28.6728C135.774 46.3208 136.09 65.0288 131.54 82.8408C129.676 82.6075 127.814 82.3755 125.951 82.1422C127.711 75.2502 128.722 68.2182 128.983 61.1702C124.23 61.1155 119.476 61.0595 114.724 61.0048C114.483 67.5208 113.548 74.0195 111.92 80.3902C110.044 80.1568 108.168 79.9222 106.292 79.6875Z" fill="white"/>
<path d="M135.557 83.3428C140.203 65.1561 139.88 46.0548 134.621 28.0361C136.488 27.7374 138.356 27.4401 140.223 27.1428C143.824 39.4828 145.176 52.3174 144.267 65.0388C149.924 52.4614 153.384 38.8654 154.185 24.9161L159.748 24.0294C165.688 44.3814 166.052 65.9548 160.805 86.4961C158.941 86.2641 157.079 86.0321 155.215 85.7988C158.628 72.4414 159.604 58.6374 158.159 45.0361C154.864 58.9441 149.052 72.1494 141.187 84.0454C139.309 83.8121 137.433 83.5774 135.557 83.3428Z" fill="white"/>
<path d="M164.822 86.9981C170.166 66.0821 169.794 44.1141 163.746 23.3914C165.614 23.0941 167.48 22.7954 169.348 22.4981C175.604 32.2674 180.624 42.7781 184.228 53.7808C187.327 42.6368 188.984 31.0608 189.031 19.3594C190.832 19.0728 192.631 18.7861 194.432 18.4981C201.312 42.0714 201.735 67.0581 195.658 90.8501L190.028 90.1461C194.036 74.4568 195.154 58.2368 193.394 42.2674C191.911 51.5314 189.464 60.6088 186.134 69.3528L181.364 69.1514C179.648 60.3661 177.016 51.7968 173.552 43.5781C175.175 58.2954 174.143 73.2434 170.451 87.7008L164.822 86.9981Z" fill="white"/>
<path d="M223.568 54.3031C223.438 46.2977 222.666 38.3031 221.254 30.3977C218.416 30.6871 215.578 30.9764 212.74 31.2658C211.777 36.5804 210.518 41.8271 208.98 46.9817C209.154 49.4977 209.262 52.0177 209.304 54.5391C214.057 54.4604 218.813 54.3817 223.568 54.3031ZM199.272 91.3017C203.578 74.4457 204.666 56.9991 202.553 39.8631C204.478 32.2617 205.776 24.4764 206.393 16.5924C211.981 15.7004 217.569 14.8097 223.156 13.9191C230.814 40.1577 231.284 67.9724 224.52 94.4551C222.657 94.2217 220.794 93.9897 218.932 93.7577C220.913 86.0044 222.261 78.1364 222.977 70.2271L208.742 69.6617C208.061 77.1711 206.781 84.6431 204.901 92.0044L199.272 91.3017Z" fill="white"/>
<path d="M228.536 94.9565C235.398 68.0992 234.92 39.8912 227.155 13.2819C229.022 12.9845 230.89 12.6859 232.756 12.3885C235.934 23.2792 237.915 34.4312 238.695 45.6525C243.444 45.4405 248.192 45.2285 252.942 45.0152C252.123 33.2592 250.048 21.5725 246.719 10.1619L252.282 9.2752C260.728 38.2179 261.247 68.8992 253.784 98.1099C251.922 97.8779 250.059 97.6445 248.195 97.4125C251.118 85.9752 252.792 74.3099 253.227 62.6139C248.474 62.5579 243.72 62.5032 238.967 62.4472C238.554 73.6099 236.954 84.7445 234.166 95.6592L228.536 94.9565Z" fill="white"/>
<path d="M257.802 98.6123C265.361 69.0256 264.834 37.9523 256.278 8.63762L261.881 7.74562C267.675 27.6043 269.851 48.2563 268.389 68.7283C274.601 48.4016 277.237 26.9856 275.842 5.51896C277.697 5.22296 279.551 4.92696 281.405 4.63229C290.642 36.279 291.21 69.8256 283.05 101.766C281.186 101.534 279.323 101.3 277.459 101.068C282.815 80.1056 284.349 58.4403 282.078 37.0963C279.607 58.747 273.239 79.8136 263.431 99.315L257.802 98.6123Z" fill="white"/>
<path d="M287.066 102.268C295.321 69.9518 294.748 36.0118 285.404 3.99449L309.169 0.205166C311.166 7.04783 312.482 12.3692 313.729 19.3465C307.594 19.9705 301.461 20.5958 295.325 21.2198C296.521 27.9038 297.718 38.6078 298.188 45.3625C303.889 45.1078 309.592 44.8518 315.293 44.5985C315.781 51.6225 315.85 55.3172 315.589 62.3532C309.882 62.2865 304.176 62.2198 298.469 62.1545C298.221 68.8238 297.304 78.2265 296.35 84.8505C302.502 85.2678 308.654 85.6838 314.808 86.1012C313.796 93.1185 312.712 98.3425 310.946 105.25C302.986 104.256 295.026 103.262 287.066 102.268Z" fill="white"/>
<path d="M73.3626 56.7339C73.7013 76.7766 57.7279 93.2992 37.6853 93.6392C17.6426 93.9779 1.11995 78.0046 0.779945 57.9619C0.441279 37.9192 16.4146 21.3966 36.4573 21.0566C56.4999 20.7179 73.0239 36.6912 73.3626 56.7339Z" fill="#F41434"/>
</svg>
